<svg width="30" height="30" viewBox="0 0 30 30" fill="none" xmlns="http://www.w3.org/2000/svg">
<path fill-rule="evenodd" clip-rule="evenodd" d="M7.56139 2.16399C6.87454 2.16399 6.31774 2.72079 6.31774 3.40764V4.65129H4.34863C3.43283 4.65129 2.69043 5.39369 2.69043 6.30949V23.7206C2.69043 24.6364 3.43283 25.3788 4.34863 25.3788H24.247C25.1628 25.3788 25.9052 24.6364 25.9052 23.7206V6.30949C25.9052 5.39369 25.1628 4.65129 24.247 4.65129H22.2779V3.40764C22.2779 2.72079 21.7211 2.16399 21.0342 2.16399H20.6197C19.9329 2.16399 19.3761 2.72079 19.3761 3.40764V4.65129H9.21959V3.40764C9.21959 2.72079 8.66279 2.16399 7.97594 2.16399H7.56139ZM6.11045 7.96769C5.4236 7.96769 4.8668 8.52449 4.8668 9.21134V9.62589C4.8668 10.3127 5.4236 10.8695 6.11045 10.8695H22.4851C23.172 10.8695 23.7288 10.3127 23.7288 9.62589V9.21134C23.7288 8.52449 23.172 7.96769 22.4851 7.96769H6.11045ZM7.0432 15.3485C7.0432 14.4775 7.74929 13.7714 8.62029 13.7714C9.49129 13.7714 10.1974 14.4775 10.1974 15.3485C10.1974 16.2195 9.49129 16.9256 8.62029 16.9256C7.74929 16.9256 7.0432 16.2195 7.0432 15.3485ZM8.62028 18.8181C7.74927 18.8181 7.04319 19.5242 7.04319 20.3952C7.04319 21.2662 7.74927 21.9723 8.62028 21.9723C9.49128 21.9723 10.1974 21.2662 10.1974 20.3952C10.1974 19.5242 9.49128 18.8181 8.62028 18.8181ZM18.3982 15.3485C18.3982 14.4775 19.1043 13.7714 19.9753 13.7714C20.8463 13.7714 21.5524 14.4775 21.5524 15.3485C21.5524 16.2195 20.8463 16.9256 19.9753 16.9256C19.1043 16.9256 18.3982 16.2195 18.3982 15.3485ZM19.9753 18.8181C19.1043 18.8181 18.3982 19.5242 18.3982 20.3952C18.3982 21.2662 19.1043 21.9723 19.9753 21.9723C20.8463 21.9723 21.5524 21.2662 21.5524 20.3952C21.5524 19.5242 20.8463 18.8181 19.9753 18.8181ZM12.7207 15.3485C12.7207 14.4775 13.4268 13.7714 14.2978 13.7714C15.1688 13.7714 15.8749 14.4775 15.8749 15.3485C15.8749 16.2195 15.1688 16.9256 14.2978 16.9256C13.4268 16.9256 12.7207 16.2195 12.7207 15.3485ZM14.2978 18.8181C13.4268 18.8181 12.7207 19.5242 12.7207 20.3952C12.7207 21.2662 13.4268 21.9723 14.2978 21.9723C15.1688 21.9723 15.8749 21.2662 15.8749 20.3952C15.8749 19.5242 15.1688 18.8181 14.2978 18.8181Z" fill="#686F75"/>
</svg>
