<svg width="27" height="27" viewBox="0 0 27 27" fill="none" xmlns="http://www.w3.org/2000/svg">
<path fill-rule="evenodd" clip-rule="evenodd" d="M13.0991 1.25498C12.831 1.33658 12.5945 1.552 12.1214 1.98285L3.02765 10.2649C1.84658 11.3406 1.25604 11.8784 1.20401 12.3442C1.15892 12.748 1.31391 13.1484 1.61913 13.4165C1.97125 13.7259 2.77 13.7259 4.36749 13.7259H5.24349V24.211C5.24349 24.8978 5.80029 25.4546 6.48713 25.4546H10.996V18.8501C10.996 18.1633 11.5528 17.6065 12.2396 17.6065H14.683C15.3699 17.6065 15.9267 18.1633 15.9267 18.8501V25.4546H20.4356C21.1225 25.4546 21.6793 24.8978 21.6793 24.211V13.7259H22.555C24.1525 13.7259 24.9513 13.7259 25.3034 13.4165C25.6086 13.1484 25.7636 12.748 25.7185 12.3442C25.6665 11.8784 25.076 11.3406 23.8949 10.2649L23.8949 10.2649L14.8011 1.98285C14.328 1.552 14.0915 1.33658 13.8234 1.25498C13.5873 1.18311 13.3352 1.18311 13.0991 1.25498Z" fill="#65B749"/>
</svg>
