<svg width="28" height="27" viewBox="0 0 28 27" fill="none" xmlns="http://www.w3.org/2000/svg">
<g clip-path="url(#clip0_390_976)">
<path d="M9.25053 2.03019C9.25053 1.34334 9.80733 0.786545 10.4942 0.786545H15.4688C16.1556 0.786545 16.7124 1.34335 16.7124 2.03019V26.4886H9.25053V2.03019Z" fill="#686F75"/>
<path d="M0.130432 10.3212C0.130432 9.63433 0.687232 9.07753 1.37408 9.07753H6.34867C7.03552 9.07753 7.59232 9.63433 7.59232 10.3212V26.4886H0.130432V10.3212Z" fill="#686F75"/>
<path d="M18.3706 18.6122C18.3706 17.9253 18.9274 17.3685 19.6143 17.3685H24.5888C25.2757 17.3685 25.8325 17.9253 25.8325 18.6122V26.4886H18.3706V18.6122Z" fill="#686F75"/>
</g>
<defs>
<clipPath id="clip0_390_976">
<rect width="26.5312" height="26.5312" fill="white" transform="translate(0.570419 0.372009)"/>
</clipPath>
</defs>
</svg>
